<svg width="181" height="180" viewBox="0 0 181 180" fill="none" xmlns="http://www.w3.org/2000/svg">
<g clip-path="url(#clip0_1080_537)">
<path d="M119.229 47.6886H89.6851C89.0383 47.6906 88.3996 47.5443 87.8175 47.2608C87.2355 46.9774 86.7255 46.5643 86.3263 46.0529C85.9198 45.5368 85.6359 44.9342 85.4961 44.2912C85.3564 43.6481 85.3645 42.9815 85.5199 42.3421C88.2428 30.882 88.2427 18.9387 85.5197 7.47868C85.3644 6.83926 85.3564 6.17269 85.4961 5.52968C85.6359 4.88667 85.9198 4.28417 86.3262 3.768C86.7254 3.25663 87.2354 2.84351 87.8175 2.56007C88.3995 2.27663 89.0383 2.13034 89.6851 2.13234H119.229C120.249 2.13529 121.235 2.50196 122.011 3.16706C122.787 3.83215 123.303 4.75248 123.467 5.76413C125.412 18.4536 125.412 31.3673 123.467 44.0568C123.303 45.0685 122.787 45.9888 122.011 46.6539C121.235 47.319 120.249 47.6857 119.229 47.6886Z" fill="#E6E6E6"/>
<path d="M89.6851 4.36622C89.3745 4.36517 89.0678 4.43533 88.7882 4.57134C88.5086 4.70736 88.2636 4.90566 88.0718 5.15115C87.8743 5.40268 87.7365 5.69616 87.6688 6.00926C87.6012 6.32237 87.6055 6.64686 87.6814 6.95804C90.4858 18.7606 90.4859 31.0607 87.6816 42.8632C87.6056 43.1743 87.6012 43.4988 87.6689 43.8118C87.7365 44.1249 87.8742 44.4183 88.0717 44.6698C88.2635 44.9153 88.5087 45.1138 88.7882 45.2499C89.0678 45.3859 89.3745 45.4561 89.6851 45.455H119.229C119.719 45.4552 120.193 45.2807 120.567 44.9625C120.941 44.6443 121.19 44.2032 121.27 43.7176C123.18 31.2531 123.18 18.5682 121.27 6.10367C121.19 5.61811 120.941 5.17696 120.567 4.85878C120.193 4.5406 119.719 4.36605 119.229 4.36622L89.6851 4.36622Z" fill="white"/>
<path d="M112.782 15.1067H97.2786C96.6892 15.1061 96.1242 14.8705 95.7074 14.4518C95.2907 14.0331 95.0563 13.4653 95.0557 12.8731V12.0002C95.0563 11.408 95.2907 10.8403 95.7074 10.4215C96.1242 10.0028 96.6892 9.76725 97.2786 9.7666H112.782C113.371 9.76725 113.936 10.0028 114.353 10.4215C114.77 10.8403 115.004 11.408 115.005 12.0002V12.8731C115.004 13.4653 114.77 14.0331 114.353 14.4518C113.936 14.8706 113.371 15.1061 112.782 15.1067Z" fill="#E6E6E6"/>
<path d="M112.782 26.136H97.2786C96.6892 26.1354 96.1242 25.8998 95.7074 25.4811C95.2907 25.0623 95.0563 24.4946 95.0557 23.9024V23.0295C95.0563 22.4373 95.2907 21.8696 95.7074 21.4508C96.1242 21.0321 96.6892 20.7965 97.2786 20.7959H112.782C113.371 20.7965 113.936 21.0321 114.353 21.4508C114.77 21.8696 115.004 22.4373 115.005 23.0295V23.9024C115.004 24.4946 114.77 25.0623 114.353 25.4811C113.936 25.8998 113.371 26.1354 112.782 26.136Z" fill="#E6E6E6"/>
<path d="M112.782 37.1653H97.2786C96.6892 37.1647 96.1242 36.9291 95.7074 36.5104C95.2907 36.0916 95.0563 35.5239 95.0557 34.9317V34.0588C95.0563 33.4666 95.2907 32.8989 95.7074 32.4801C96.1242 32.0614 96.6892 31.8258 97.2786 31.8252H112.782C113.371 31.8258 113.936 32.0614 114.353 32.4801C114.77 32.8989 115.004 33.4666 115.005 34.0588V34.9317C115.004 35.5239 114.77 36.0916 114.353 36.5104C113.936 36.9291 113.371 37.1647 112.782 37.1653Z" fill="#E6E6E6"/>
<path d="M174.804 75.9825H145.26C144.613 75.9845 143.974 75.8382 143.392 75.5548C142.81 75.2713 142.3 74.8582 141.901 74.3469C141.494 73.8307 141.21 73.2282 141.071 72.5851C140.931 71.9421 140.939 71.2755 141.094 70.636C143.817 59.1759 143.817 47.2327 141.094 35.7726C140.939 35.1332 140.931 34.4666 141.071 33.8236C141.21 33.1806 141.494 32.5781 141.901 32.0619C142.3 31.5506 142.81 31.1375 143.392 30.854C143.974 30.5706 144.613 30.4243 145.26 30.4263H174.804C175.824 30.4292 176.81 30.7959 177.586 31.461C178.362 32.1261 178.878 33.0464 179.042 34.0581C180.986 46.7475 180.986 59.6613 179.042 72.3508C178.878 73.3624 178.362 74.2827 177.586 74.9478C176.81 75.6129 175.824 75.9796 174.804 75.9825Z" fill="#E6E6E6"/>
<path d="M145.26 32.6597C144.949 32.6586 144.642 32.7288 144.363 32.8648C144.083 33.0008 143.838 33.1991 143.646 33.4446C143.449 33.6961 143.311 33.9896 143.243 34.3027C143.176 34.6158 143.18 34.9403 143.256 35.2515C146.06 47.054 146.06 59.3541 143.256 71.1567C143.18 71.4678 143.176 71.7922 143.243 72.1053C143.311 72.4183 143.449 72.7117 143.646 72.9632C143.838 73.2088 144.083 73.4073 144.363 73.5433C144.642 73.6794 144.949 73.7496 145.26 73.7485H174.804C175.293 73.7487 175.767 73.5741 176.141 73.2559C176.515 72.9378 176.764 72.4966 176.845 72.011C178.754 59.5465 178.754 46.8617 176.845 34.3971C176.764 33.9116 176.515 33.4704 176.141 33.1522C175.767 32.8341 175.293 32.6595 174.804 32.6597L145.26 32.6597Z" fill="white"/>
<path d="M115.895 108.185H86.3506C85.6758 108.187 85.0094 108.034 84.4022 107.739C83.795 107.443 83.2628 107.012 82.8464 106.478C82.4225 105.94 82.1264 105.312 81.9807 104.641C81.8349 103.971 81.8434 103.276 82.0053 102.609C84.7214 91.1773 84.7213 79.2638 82.0051 67.8323C81.8433 67.1655 81.8349 66.4704 81.9806 65.7999C82.1264 65.1294 82.4224 64.5011 82.8463 63.9629C83.2628 63.4294 83.7949 62.9984 84.4021 62.7027C85.0094 62.407 85.6758 62.2543 86.3506 62.2564H115.895C116.959 62.2596 117.987 62.6422 118.797 63.3362C119.607 64.0302 120.145 64.9905 120.316 66.0459C122.263 78.7542 122.263 91.6871 120.316 104.395C120.145 105.451 119.607 106.411 118.797 107.105C117.987 107.799 116.959 108.182 115.895 108.185Z" fill="#F2F2F2"/>
<path d="M168.356 48.9846H152.853C152.264 48.984 151.699 48.7485 151.282 48.3297C150.865 47.911 150.631 47.3432 150.63 46.751V45.8782C150.631 45.286 150.865 44.7182 151.282 44.2995C151.699 43.8807 152.264 43.6452 152.853 43.6445H168.356C168.946 43.6452 169.511 43.8807 169.928 44.2995C170.344 44.7182 170.579 45.286 170.579 45.8782V46.751C170.579 47.3432 170.344 47.911 169.928 48.3297C169.511 48.7485 168.946 48.984 168.356 48.9846Z" fill="#E6E6E6"/>
<path d="M168.356 60.0139H152.853C152.264 60.0133 151.699 59.7778 151.282 59.359C150.865 58.9403 150.631 58.3725 150.63 57.7803V56.9074C150.631 56.3153 150.865 55.7475 151.282 55.3287C151.699 54.91 152.264 54.6745 152.853 54.6738H168.356C168.946 54.6745 169.511 54.91 169.928 55.3287C170.344 55.7475 170.579 56.3153 170.579 56.9074V57.7803C170.579 58.3725 170.344 58.9403 169.928 59.359C169.511 59.7778 168.946 60.0133 168.356 60.0139Z" fill="#E6E6E6"/>
<path d="M101.205 93.63C105.912 93.63 109.727 89.7964 109.727 85.0674C109.727 80.3385 105.912 76.5049 101.205 76.5049C96.499 76.5049 92.6838 80.3385 92.6838 85.0674C92.6838 89.7964 96.499 93.63 101.205 93.63Z" fill="white"/>
<path d="M105.281 83.9506H102.317V80.9723C102.317 80.6761 102.2 80.392 101.991 80.1826C101.783 79.9731 101.5 79.8555 101.205 79.8555C100.91 79.8555 100.628 79.9731 100.419 80.1826C100.211 80.392 100.094 80.6761 100.094 80.9723V83.9506H97.1298C96.835 83.9506 96.5523 84.0683 96.3439 84.2777C96.1354 84.4872 96.0183 84.7713 96.0183 85.0675C96.0183 85.3637 96.1354 85.6477 96.3439 85.8572C96.5523 86.0666 96.835 86.1843 97.1298 86.1843H100.094V89.1626C100.094 89.4588 100.211 89.7429 100.419 89.9523C100.628 90.1618 100.91 90.2795 101.205 90.2795C101.5 90.2795 101.783 90.1618 101.991 89.9523C102.2 89.7429 102.317 89.4588 102.317 89.1626V86.1843H105.281C105.576 86.1843 105.858 86.0666 106.067 85.8572C106.275 85.6477 106.392 85.3637 106.392 85.0675C106.392 84.7713 106.275 84.4872 106.067 84.2777C105.858 84.0683 105.576 83.9506 105.281 83.9506Z" fill="#E6E6E6"/>
<path d="M111.95 6.32885H96.3887C95.9466 6.32835 95.5229 6.15169 95.2103 5.83762C94.8978 5.52355 94.7219 5.09773 94.7214 4.65357V1.67528C94.7219 1.23112 94.8978 0.8053 95.2103 0.491232C95.5229 0.177164 95.9466 0.000500559 96.3887 0H111.95C112.392 0.000500559 112.815 0.177164 113.128 0.491232C113.44 0.8053 113.616 1.23112 113.617 1.67528V4.65357C113.616 5.09773 113.44 5.52355 113.128 5.83762C112.815 6.15169 112.392 6.32835 111.95 6.32885Z" fill="#CCCCCC"/>
<path d="M168.265 34.9949H152.704C152.262 34.9944 151.839 34.8177 151.526 34.5036C151.213 34.1896 151.038 33.7637 151.037 33.3196V30.3413C151.038 29.8971 151.213 29.4713 151.526 29.1573C151.839 28.8432 152.262 28.6665 152.704 28.666H168.265C168.707 28.6665 169.131 28.8432 169.444 29.1573C169.756 29.4713 169.932 29.8971 169.932 30.3413V33.3196C169.932 33.7637 169.756 34.1896 169.444 34.5036C169.131 34.8177 168.707 34.9944 168.265 34.9949Z" fill="#CCCCCC"/>
<path d="M33.3245 175.369H37.8668L39.2869 157.765H33.3237L33.3245 175.369Z" fill="#FFB8B8"/>
<path d="M32.166 173.879L41.1112 173.879H41.1116C41.8602 173.879 42.6015 174.027 43.2931 174.315C43.9848 174.603 44.6132 175.025 45.1426 175.557C45.6719 176.088 46.0918 176.72 46.3783 177.415C46.6648 178.11 46.8123 178.855 46.8122 179.607V179.793L32.1663 179.794L32.166 173.879Z" fill="#2F2E41"/>
<path d="M8.87184 175.369H13.4141L15.5752 157.765H8.87109L8.87184 175.369Z" fill="#FFB8B8"/>
<path d="M7.71338 173.879L16.6586 173.879H16.659C17.4076 173.879 18.1489 174.027 18.8405 174.315C19.5321 174.603 20.1606 175.025 20.6899 175.557C21.2193 176.088 21.6392 176.72 21.9257 177.415C22.2122 178.11 22.3596 178.855 22.3596 179.607V179.793L7.71366 179.794L7.71338 173.879Z" fill="#2F2E41"/>
<path d="M9.67774 169.808C9.21439 169.808 8.76803 169.632 8.42731 169.317C8.24441 169.149 8.09711 168.946 7.99424 168.72C7.89137 168.494 7.83507 168.249 7.82869 168L6.00708 102.398L31.8719 108.896L39.8523 132.952C40.8814 136.047 41.3268 139.307 41.1658 142.566L40.1749 165.885C40.1523 166.362 39.9474 166.813 39.6029 167.143C39.2583 167.473 38.8005 167.657 38.3245 167.656H33.9864C33.5386 167.654 33.1065 167.49 32.7693 167.194C32.4321 166.898 32.2124 166.49 32.1506 166.044L29.0499 140.304C28.779 138.296 28.0799 136.37 27.0005 134.659L20.8986 124.951C20.8578 124.886 20.798 124.835 20.7275 124.806C20.657 124.777 20.5792 124.77 20.5047 124.786C20.4301 124.803 20.3626 124.843 20.3112 124.899C20.2599 124.956 20.2272 125.027 20.2177 125.103L15.4292 167.949C15.3778 168.384 15.1754 168.786 14.8578 169.086C14.5401 169.385 14.1276 169.562 13.6927 169.586L9.78319 169.804C9.74802 169.806 9.71293 169.808 9.67774 169.808Z" fill="#2F2E41"/>
<path d="M27.5676 59.9256C32.5932 59.9256 36.6674 55.8318 36.6674 50.7819C36.6674 45.732 32.5932 41.6382 27.5676 41.6382C22.5419 41.6382 18.4678 45.732 18.4678 50.7819C18.4678 55.8318 22.5419 59.9256 27.5676 59.9256Z" fill="#FFB8B8"/>
<path d="M31.748 111.564C31.5914 111.564 31.4355 111.544 31.2838 111.505L5.62129 104.893C5.16247 104.775 4.76611 104.485 4.5137 104.082C4.26128 103.679 4.17199 103.195 4.2642 102.728L10.1578 70.8264C10.5249 68.9824 11.332 67.2554 12.5097 65.7938C13.6875 64.3323 15.2006 63.1798 16.9192 62.4352C18.5938 61.6905 20.4251 61.3714 22.2515 61.5062C24.0779 61.6409 25.8432 62.2253 27.3916 63.2078C27.7508 63.433 28.1127 63.6786 28.467 63.9378C29.893 64.9948 31.0559 66.3694 31.8645 67.9538C32.673 69.5382 33.1053 71.2893 33.1274 73.0697L33.596 109.676C33.5992 109.922 33.5538 110.167 33.4624 110.395C33.371 110.624 33.2355 110.832 33.0636 111.007C32.8918 111.183 32.6871 111.322 32.4613 111.418C32.2354 111.513 31.993 111.563 31.748 111.564Z" fill="white"/>
<path d="M8.26157 111.939C7.95544 111.486 7.75181 110.972 7.66503 110.431C7.57824 109.891 7.61042 109.338 7.75927 108.812C7.90812 108.285 8.17004 107.798 8.52657 107.384C8.88311 106.971 9.32559 106.64 9.82285 106.417L8.68142 93.1631L14.7302 96.4572L14.8867 108.538C15.2047 109.403 15.1962 110.354 14.8627 111.213C14.5292 112.071 13.8939 112.776 13.0773 113.196C12.2607 113.615 11.3194 113.718 10.4318 113.487C9.54425 113.255 8.77205 112.704 8.26157 111.939Z" fill="#FFB8B8"/>
<path d="M10.4226 104.664C10.2519 104.664 10.0819 104.642 9.91656 104.6C9.56093 104.508 9.23643 104.322 8.97738 104.061C8.71834 103.8 8.53438 103.473 8.44497 103.116L5.4724 91.2457C4.43357 87.1 4.92879 82.7163 6.86593 78.9101L13.0936 66.6687C13.4872 65.203 14.4384 63.9516 15.742 63.1842C17.0456 62.4169 18.5971 62.195 20.0619 62.5667C20.792 62.7519 21.4783 63.081 22.0809 63.5347C22.6835 63.9885 23.1904 64.558 23.5723 65.2101C23.9621 65.8716 24.217 66.6043 24.3222 67.3658C24.4274 68.1272 24.3808 68.902 24.1851 69.6452L15.3201 89.5646L15.4254 101.491C15.4281 101.912 15.3022 102.323 15.0647 102.67C14.8272 103.016 14.4895 103.281 14.0973 103.429L11.1306 104.536C10.9041 104.62 10.6643 104.664 10.4226 104.664Z" fill="white"/>
<path d="M52.8578 107.064C52.3167 107.002 51.7957 106.821 51.3315 106.535C50.8674 106.248 50.4714 105.863 50.1714 105.406C49.8714 104.95 49.6747 104.432 49.5952 103.891C49.5157 103.349 49.5553 102.797 49.7112 102.273L38.9692 94.4958L45.3998 92.0381L54.6147 99.7998C55.474 100.121 56.1861 100.749 56.616 101.563C57.0459 102.376 57.1637 103.321 56.9472 104.216C56.7306 105.111 56.1947 105.896 55.441 106.421C54.6873 106.945 53.7682 107.174 52.8578 107.064Z" fill="#FFB8B8"/>
<path d="M47.2345 101.385C46.9178 101.385 46.6054 101.31 46.3221 101.168L35.4298 95.6892C31.6253 93.7758 28.6418 90.5391 27.0341 86.5811L21.8629 73.8526C21.0143 72.5965 20.6909 71.0557 20.9624 69.5623C21.234 68.0689 22.0787 66.7425 23.3144 65.8691C23.9319 65.4329 24.6296 65.1245 25.3668 64.9619C26.1041 64.7994 26.8661 64.7859 27.6086 64.9222C28.3598 65.058 29.0768 65.3421 29.7179 65.7583C30.359 66.1745 30.9116 66.7144 31.3435 67.3466L40.5856 87.0925L49.6501 94.7923C49.9693 95.0647 50.1976 95.4289 50.304 95.8359C50.4105 96.2428 50.39 96.6728 50.2454 97.0677L49.1451 100.049C49.0015 100.44 48.742 100.777 48.4016 101.016C48.0594 101.256 47.652 101.385 47.2345 101.385Z" fill="white"/>
<path d="M25.6567 60.0659C26.1402 60.2785 27.1303 56.4073 26.6868 55.633C26.0272 54.4816 26.0662 54.4899 25.6284 53.7281C25.1905 52.9663 25.0926 51.9236 25.6596 51.2533C26.2266 50.583 27.5387 50.6719 27.7975 51.5123C27.631 49.916 29.2024 48.6328 30.7589 48.2722C32.3154 47.9117 33.9572 48.1355 35.5222 47.8146C37.3386 47.4422 39.2284 45.9124 38.5037 43.9054C38.3793 43.5712 38.1931 43.2638 37.955 42.9992C37.1177 42.0533 35.9464 41.6493 34.8013 41.2588C32.419 40.4463 29.9715 39.6236 27.4573 39.7133C25.3857 39.8221 23.3906 40.5354 21.7161 41.7658C20.0417 42.9963 18.7605 44.6905 18.0295 46.6412C17.8562 47.1292 17.722 47.6303 17.628 48.1398C16.7651 52.8024 19.4597 57.4015 23.8362 59.177L25.6567 60.0659Z" fill="#2F2E41"/>
<path opacity="0.2" d="M14.9124 101.762L15.1187 89.5027L21.5813 76.4463L16.3943 89.8486L14.9124 101.762Z" fill="black"/>
<path d="M73.5165 132.527L46.2337 121.137C45.6357 120.889 45.1017 120.508 44.6724 120.022C44.2432 119.536 43.9299 118.958 43.7565 118.332C43.5782 117.698 43.5461 117.032 43.6626 116.385C43.7791 115.737 44.0412 115.124 44.4288 114.594C51.3192 105.061 55.8796 94.0315 57.7409 82.3987C57.8417 81.7484 58.0888 81.1297 58.4634 80.5898C58.838 80.0499 59.3302 79.6029 59.9025 79.2829C60.4665 78.9646 61.0952 78.7798 61.741 78.7424C62.3867 78.7051 63.0324 78.8162 63.6289 79.0675L90.9117 90.4577C91.8526 90.8537 92.623 91.5724 93.0858 92.4858C93.5486 93.3992 93.6736 94.4481 93.4387 95.4455C90.389 107.913 85.4579 119.839 78.817 130.807C78.2793 131.678 77.4514 132.329 76.4807 132.644C75.51 132.959 74.4596 132.918 73.5165 132.527Z" fill="#E6E6E6"/>
<path d="M62.7759 81.13C62.4895 81.0092 62.1794 80.9557 61.8693 80.9736C61.5592 80.9914 61.2572 81.0801 60.9864 81.2328C60.7079 81.3889 60.4686 81.6068 60.2866 81.8699C60.1045 82.1329 59.9846 82.4343 59.9359 82.7509C58.019 94.7313 53.3223 106.09 46.226 115.908C46.037 116.166 45.9091 116.464 45.852 116.779C45.7949 117.094 45.8101 117.418 45.8965 117.727C45.9798 118.027 46.1304 118.305 46.3366 118.539C46.5428 118.772 46.7993 118.955 47.0865 119.074L74.3694 130.464C74.8217 130.653 75.3261 130.675 75.7927 130.525C76.2594 130.375 76.658 130.064 76.9176 129.647C83.4407 118.872 88.2843 107.158 91.2801 94.9116C91.3913 94.4322 91.3296 93.9287 91.1059 93.4908C90.8823 93.0529 90.5112 92.7089 90.0587 92.5202L62.7759 81.13Z" fill="white"/>
<path d="M77.3031 106.486L62.9862 100.508C62.4422 100.281 62.0104 99.8452 61.7854 99.2978C61.5605 98.7505 61.5608 98.1358 61.7863 97.5887L62.1196 96.7826C62.3463 96.236 62.7796 95.8021 63.3243 95.576C63.8691 95.35 64.4808 95.3503 65.0253 95.5769L79.3422 101.554C79.8862 101.782 80.318 102.217 80.543 102.765C80.7679 103.312 80.7676 103.927 80.542 104.474L80.2087 105.28C79.982 105.826 79.5488 106.26 79.004 106.486C78.4593 106.712 77.8476 106.712 77.3031 106.486Z" fill="white"/>
<path d="M73.0917 116.671L58.7748 110.693C58.2308 110.466 57.7989 110.03 57.574 109.483C57.349 108.936 57.3494 108.321 57.5749 107.774L57.9082 106.968C58.1349 106.421 58.5682 105.987 59.1129 105.761C59.6576 105.535 60.2694 105.535 60.8139 105.762L75.1308 111.739C75.6748 111.967 76.1066 112.402 76.3315 112.95C76.5565 113.497 76.5562 114.112 76.3306 114.659L75.9973 115.465C75.7706 116.012 75.3374 116.445 74.7926 116.671C74.2479 116.898 73.6362 116.897 73.0917 116.671Z" fill="white"/>
<path d="M83.0398 92.171C82.8255 92.1709 82.6132 92.1291 82.4147 92.048L67.9883 86.1872C67.5787 86.0202 67.2517 85.6969 67.0791 85.288C66.9065 84.8791 66.9023 84.4182 67.0675 84.0062L68.1785 81.245C68.3443 80.8331 68.6661 80.5042 69.0732 80.3308C69.4802 80.1573 69.9392 80.1534 70.3491 80.3199L84.7755 86.1806C85.1851 86.3476 85.5121 86.671 85.6847 87.0798C85.8573 87.4887 85.8615 87.9497 85.6963 88.3616L84.5853 91.1229C84.4605 91.4321 84.2468 91.697 83.9716 91.8837C83.6963 92.0703 83.3719 92.1704 83.0398 92.171Z" fill="#CCCCCC"/>
<path d="M52.7401 180H0.870497C0.772235 180 0.678003 179.961 0.608521 179.891C0.53904 179.821 0.5 179.726 0.5 179.628C0.5 179.529 0.53904 179.434 0.608521 179.364C0.678003 179.295 0.772235 179.255 0.870497 179.255H52.7401C52.8384 179.255 52.9326 179.295 53.0021 179.364C53.0716 179.434 53.1106 179.529 53.1106 179.628C53.1106 179.726 53.0716 179.821 53.0021 179.891C52.9326 179.961 52.8384 180 52.7401 180Z" fill="#CCCCCC"/>
</g>
<defs>
<clipPath id="clip0_1080_537">
<rect width="180" height="180" fill="white" transform="translate(0.5)"/>
</clipPath>
</defs>
</svg>
