<svg width="1024" height="1024" viewBox="0 0 1024 1024" fill="none" xmlns="http://www.w3.org/2000/svg">
<rect width="1024" height="1024" fill="white"/>
<path fill-rule="evenodd" clip-rule="evenodd" d="M448 352C451.477 352.001 454.858 353.134 457.633 355.228C460.409 357.322 462.426 360.262 463.381 363.605L480.725 424.32C484.46 437.396 491.465 449.303 501.081 458.919C510.697 468.534 522.604 475.54 535.68 479.275L596.395 496.619C599.735 497.576 602.674 499.594 604.765 502.369C606.857 505.144 607.988 508.525 607.988 512C607.988 515.475 606.857 518.856 604.765 521.631C602.674 524.406 599.735 526.424 596.395 527.381L535.68 544.725C522.604 548.46 510.697 555.465 501.081 565.081C491.465 574.697 484.46 586.604 480.725 599.68L463.381 660.395C462.424 663.735 460.406 666.674 457.631 668.765C454.856 670.857 451.475 671.988 448 671.988C444.525 671.988 441.144 670.857 438.369 668.765C435.594 666.674 433.576 663.735 432.619 660.395L415.275 599.68C411.54 586.604 404.534 574.697 394.919 565.081C385.303 555.465 373.396 548.46 360.32 544.725L299.605 527.381C296.265 526.424 293.326 524.406 291.235 521.631C289.143 518.856 288.011 515.475 288.011 512C288.011 508.525 289.143 505.144 291.235 502.369C293.326 499.594 296.265 497.576 299.605 496.619L360.32 479.275C373.396 475.54 385.303 468.534 394.919 458.919C404.534 449.303 411.54 437.396 415.275 424.32L432.619 363.605C433.574 360.262 435.591 357.322 438.366 355.228C441.142 353.134 444.523 352.001 448 352ZM640 288C643.569 287.998 647.037 289.19 649.851 291.385C652.665 293.581 654.664 296.655 655.531 300.117L661.035 322.219C666.069 342.272 681.728 357.931 701.781 362.965L723.883 368.469C727.352 369.329 730.434 371.325 732.636 374.14C734.839 376.955 736.036 380.426 736.036 384C736.036 387.574 734.839 391.045 732.636 393.86C730.434 396.675 727.352 398.671 723.883 399.531L701.781 405.035C681.728 410.069 666.069 425.728 661.035 445.781L655.531 467.883C654.671 471.352 652.675 474.434 649.86 476.636C647.045 478.839 643.574 480.036 640 480.036C636.426 480.036 632.954 478.839 630.14 476.636C627.325 474.434 625.329 471.352 624.469 467.883L618.965 445.781C616.504 435.934 611.412 426.942 604.235 419.765C597.058 412.588 588.065 407.496 578.219 405.035L556.117 399.531C552.648 398.671 549.566 396.675 547.364 393.86C545.161 391.045 543.964 387.574 543.964 384C543.964 380.426 545.161 376.955 547.364 374.14C549.566 371.325 552.648 369.329 556.117 368.469L578.219 362.965C588.065 360.504 597.058 355.412 604.235 348.235C611.412 341.058 616.504 332.065 618.965 322.219L624.469 300.117C625.335 296.655 627.335 293.581 630.149 291.385C632.963 289.19 636.431 287.998 640 288ZM608 576C611.36 575.998 614.636 577.054 617.362 579.019C620.089 580.983 622.127 583.756 623.189 586.944L631.595 612.181C634.795 621.717 642.261 629.227 651.819 632.405L677.056 640.832C680.234 641.899 682.996 643.937 684.954 646.659C686.911 649.38 687.964 652.648 687.964 656C687.964 659.352 686.911 662.62 684.954 665.341C682.996 668.063 680.234 670.101 677.056 671.168L651.819 679.595C642.283 682.795 634.773 690.261 631.595 699.819L623.168 725.056C622.101 728.234 620.063 730.996 617.341 732.954C614.62 734.911 611.352 735.964 608 735.964C604.648 735.964 601.38 734.911 598.659 732.954C595.937 730.996 593.899 728.234 592.832 725.056L584.405 699.819C582.834 695.11 580.189 690.831 576.678 687.321C573.168 683.811 568.89 681.166 564.181 679.595L538.944 671.168C535.766 670.101 533.003 668.063 531.046 665.341C529.089 662.62 528.036 659.352 528.036 656C528.036 652.648 529.089 649.38 531.046 646.659C533.003 643.937 535.766 641.899 538.944 640.832L564.181 632.405C573.717 629.205 581.227 621.739 584.405 612.181L592.832 586.944C593.893 583.759 595.928 580.989 598.65 579.025C601.372 577.061 604.643 576.003 608 576Z" fill="#111111"/>
</svg>
