<svg width="21" height="24" viewBox="0 0 21 24" fill="none" xmlns="http://www.w3.org/2000/svg">
<path d="M10.652 6.896C9.70399 6.896 8.23699 5.818 6.69199 5.856C4.65199 5.883 2.78199 7.039 1.73099 8.87C-0.386011 12.545 1.18499 17.973 3.24999 20.96C4.26299 22.414 5.45799 24.05 7.04199 23.999C8.56199 23.934 9.13199 23.012 10.977 23.012C12.808 23.012 13.327 23.999 14.937 23.96C16.574 23.934 17.613 22.48 18.613 21.012C19.769 19.324 20.249 17.687 20.275 17.597C20.236 17.584 17.093 16.376 17.055 12.74C17.029 9.7 19.535 8.246 19.652 8.181C18.223 6.091 16.029 5.857 15.262 5.805C13.262 5.649 11.587 6.896 10.652 6.896ZM14.03 3.83C14.873 2.818 15.43 1.403 15.275 0C14.068 0.052 12.613 0.805 11.743 1.818C10.963 2.714 10.289 4.156 10.47 5.532C11.808 5.636 13.185 4.844 14.029 3.831" fill="#191919"/>
</svg>
