<svg width="12" height="12" viewBox="0 0 12 12" fill="none" xmlns="http://www.w3.org/2000/svg">
<path fill-rule="evenodd" clip-rule="evenodd" d="M0.3125 6C0.3125 2.85875 2.85875 0.3125 6 0.3125C9.14125 0.3125 11.6875 2.85875 11.6875 6C11.6875 9.14125 9.14125 11.6875 6 11.6875C2.85875 11.6875 0.3125 9.14125 0.3125 6ZM8.10583 4.94183C8.14083 4.8952 8.16616 4.84203 8.18032 4.78547C8.19448 4.72891 8.19719 4.67008 8.18829 4.61246C8.17939 4.55483 8.15906 4.49956 8.1285 4.44991C8.09793 4.40025 8.05775 4.3572 8.01032 4.3233C7.96288 4.28939 7.90914 4.26531 7.85226 4.25247C7.79539 4.23963 7.73652 4.23828 7.67911 4.24852C7.62171 4.25876 7.56693 4.28036 7.518 4.31207C7.46906 4.34378 7.42696 4.38495 7.39417 4.43317L5.5065 7.07567L4.55917 6.12833C4.47623 6.05105 4.36654 6.00898 4.2532 6.01098C4.13985 6.01298 4.03171 6.0589 3.95155 6.13905C3.8714 6.21921 3.82548 6.32735 3.82348 6.4407C3.82148 6.55404 3.86355 6.66373 3.94083 6.74667L5.25333 8.05917C5.29824 8.10404 5.35238 8.13861 5.41199 8.16046C5.4716 8.18231 5.53525 8.19093 5.59853 8.18571C5.6618 8.18049 5.72318 8.16157 5.77841 8.13025C5.83363 8.09893 5.88138 8.05596 5.91833 8.00433L8.10583 4.94183Z" fill="#191919"/>
</svg>
