<svg width="12" height="11" viewBox="0 0 12 11" fill="none" xmlns="http://www.w3.org/2000/svg">
<path d="M10.7287 1.03207C10.5881 0.938214 10.416 0.904028 10.2502 0.937022C10.0845 0.970017 9.93859 1.06749 9.84467 1.20802L9.84454 1.20821L5.02561 8.43689L2.07554 5.48681L2.07563 5.48672L2.07046 5.48191C1.94961 5.3693 1.78977 5.308 1.62462 5.31091C1.45946 5.31383 1.30188 5.38073 1.18508 5.49753L1.18508 5.49753C1.06828 5.61433 1.00138 5.77191 0.998464 5.93707C0.99555 6.10222 1.05685 6.26206 1.16946 6.38291L1.16937 6.383L1.17436 6.38799L4.67436 9.88799L4.67439 9.88801C4.74107 9.95467 4.82169 10.0057 4.91046 10.0374C4.99923 10.0692 5.09394 10.0808 5.18776 10.0716C5.28158 10.0623 5.37217 10.0323 5.45301 9.98384C5.53386 9.93534 5.60294 9.86952 5.65529 9.79111L5.65536 9.79101L10.9054 1.91601L10.9054 1.916C10.9991 1.77532 11.0332 1.60316 11 1.43738C10.9669 1.27165 10.8693 1.12586 10.7287 1.03207ZM10.7287 1.03207L10.6176 1.1984L10.7286 1.032C10.7286 1.03202 10.7286 1.03204 10.7287 1.03207Z" fill="#191919" stroke="#191919" stroke-width="0.4"/>
</svg>
