<svg width="20" height="21" viewBox="0 0 20 21" fill="none" xmlns="http://www.w3.org/2000/svg">
<path d="M9.63519 3.22156C9.67116 3.15623 9.724 3.10176 9.7882 3.06382C9.85241 3.02587 9.92562 3.00586 10.0002 3.00586C10.0748 3.00586 10.148 3.02587 10.2122 3.06382C10.2764 3.10176 10.3292 3.15623 10.3652 3.22156L12.8252 7.89156C12.8839 7.9997 12.9657 8.0935 13.0649 8.16625C13.1642 8.23899 13.2783 8.28886 13.399 8.31228C13.5198 8.3357 13.6443 8.33209 13.7635 8.30171C13.8827 8.27133 13.9937 8.21493 14.0885 8.13656L17.6527 5.08323C17.7211 5.02758 17.8054 4.99508 17.8935 4.9904C17.9816 4.98572 18.0688 5.0091 18.1428 5.05718C18.2167 5.10527 18.2735 5.17557 18.3049 5.25797C18.3363 5.34037 18.3408 5.43062 18.3177 5.51573L15.956 14.0541C15.9078 14.2288 15.804 14.383 15.6602 14.4934C15.5164 14.6038 15.3406 14.6643 15.1594 14.6657H4.84186C4.66047 14.6645 4.48445 14.604 4.34052 14.4937C4.19659 14.3833 4.0926 14.2289 4.04436 14.0541L1.68352 5.51656C1.6604 5.43146 1.66488 5.34121 1.69631 5.25881C1.72774 5.1764 1.78451 5.1061 1.85844 5.05802C1.93237 5.00993 2.01966 4.98655 2.10772 4.99123C2.19579 4.99591 2.2801 5.02841 2.34852 5.08406L5.91186 8.1374C6.00669 8.21576 6.1177 8.27216 6.23691 8.30254C6.35612 8.33293 6.48058 8.33653 6.60136 8.31311C6.72213 8.28969 6.83622 8.23982 6.93543 8.16708C7.03465 8.09434 7.11653 8.00053 7.17519 7.8924L9.63519 3.22156Z" stroke="white" stroke-width="2" stroke-linecap="round" stroke-linejoin="round"/>
<path d="M4.1665 18H15.8332" stroke="white" stroke-width="2" stroke-linecap="round" stroke-linejoin="round"/>
</svg>
