<svg width="26" height="24" viewBox="0 0 26 24" fill="none" xmlns="http://www.w3.org/2000/svg">
<path d="M7.75 7.625H18.25M7.75 11.125H13M1.625 12.8867C1.625 14.7533 2.93517 16.3797 4.78317 16.6515C6.10033 16.8452 7.4315 16.9933 8.77667 17.0937C9.185 17.124 9.55833 17.3387 9.78583 17.6782L13 22.5L16.2142 17.6782C16.3269 17.5105 16.4764 17.3707 16.6513 17.2694C16.8261 17.1681 17.0218 17.108 17.2233 17.0937C18.5593 16.9939 19.8914 16.8464 21.2168 16.6515C23.0648 16.3797 24.375 14.7545 24.375 12.8855V5.8645C24.375 3.9955 23.0648 2.37034 21.2168 2.0985C18.4961 1.69917 15.7499 1.49914 13 1.5C10.2093 1.5 7.46533 1.70417 4.78317 2.0985C2.93517 2.37034 1.625 3.99667 1.625 5.8645V12.8855V12.8867Z" stroke="white" stroke-width="1.5" stroke-linecap="round" stroke-linejoin="round"/>
</svg>
