<svg width="18" height="15" viewBox="0 0 18 15" fill="none" xmlns="http://www.w3.org/2000/svg">
<path fill-rule="evenodd" clip-rule="evenodd" d="M15.25 15C15.913 15 16.5489 14.7366 17.0178 14.2678C17.4866 13.7989 17.75 13.163 17.75 12.5V5C17.75 4.33696 17.4866 3.70107 17.0178 3.23223C16.5489 2.76339 15.913 2.5 15.25 2.5H10.7675C10.6018 2.49985 10.4429 2.43391 10.3258 2.31667L8.55833 0.55C8.38429 0.37574 8.17762 0.237476 7.95013 0.143106C7.72264 0.0487351 7.47879 0.000107284 7.2325 0H2.75C2.08696 0 1.45107 0.263392 0.982233 0.732233C0.513392 1.20107 0.25 1.83696 0.25 2.5V12.5C0.25 13.163 0.513392 13.7989 0.982233 14.2678C1.45107 14.7366 2.08696 15 2.75 15H15.25ZM9.625 6.25C9.625 6.08424 9.55915 5.92527 9.44194 5.80806C9.32473 5.69085 9.16576 5.625 9 5.625C8.83424 5.625 8.67527 5.69085 8.55806 5.80806C8.44085 5.92527 8.375 6.08424 8.375 6.25V8.125H6.5C6.33424 8.125 6.17527 8.19085 6.05806 8.30806C5.94085 8.42527 5.875 8.58424 5.875 8.75C5.875 8.91576 5.94085 9.07473 6.05806 9.19194C6.17527 9.30915 6.33424 9.375 6.5 9.375H8.375V11.25C8.375 11.4158 8.44085 11.5747 8.55806 11.6919C8.67527 11.8092 8.83424 11.875 9 11.875C9.16576 11.875 9.32473 11.8092 9.44194 11.6919C9.55915 11.5747 9.625 11.4158 9.625 11.25V9.375H11.5C11.6658 9.375 11.8247 9.30915 11.9419 9.19194C12.0592 9.07473 12.125 8.91576 12.125 8.75C12.125 8.58424 12.0592 8.42527 11.9419 8.30806C11.8247 8.19085 11.6658 8.125 11.5 8.125H9.625V6.25Z" fill="#828282"/>
</svg>
