<svg width="18" height="18" viewBox="0 0 18 18" fill="none" xmlns="http://www.w3.org/2000/svg">
<path d="M14.625 15.75C15.2217 15.75 15.794 15.5129 16.216 15.091C16.6379 14.669 16.875 14.0967 16.875 13.5V10.125C16.875 9.52826 16.6379 8.95597 16.216 8.53401C15.794 8.11205 15.2217 7.875 14.625 7.875H3.375C2.77826 7.875 2.20597 8.11205 1.78401 8.53401C1.36205 8.95597 1.125 9.52826 1.125 10.125V13.5C1.125 14.0967 1.36205 14.669 1.78401 15.091C2.20597 15.5129 2.77826 15.75 3.375 15.75H14.625ZM1.125 7.6095V4.5C1.125 3.90326 1.36205 3.33097 1.78401 2.90901C2.20597 2.48705 2.77826 2.25 3.375 2.25H7.40925C7.85654 2.25019 8.28546 2.42797 8.60175 2.74425L10.1932 4.335C10.2982 4.44075 10.4415 4.5 10.5907 4.5H14.625C15.2217 4.5 15.794 4.73705 16.216 5.15901C16.6379 5.58097 16.875 6.15326 16.875 6.75V7.6095C16.2569 7.05498 15.4554 6.74882 14.625 6.75H3.375C2.54459 6.74882 1.74313 7.05498 1.125 7.6095Z" fill="white"/>
</svg>
