<svg width="25" height="24" viewBox="0 0 25 24" fill="none" xmlns="http://www.w3.org/2000/svg">
<path d="M12.98 10.92V14.2H20.82C20.58 16.04 19.967 17.387 19.033 18.333C17.886 19.48 16.1 20.733 12.98 20.733C8.15301 20.733 4.38001 16.84 4.38001 12.013C4.38001 7.186 8.15301 3.293 12.98 3.293C15.58 3.293 17.487 4.32 18.887 5.64L21.194 3.333C19.247 1.44 16.633 0 12.98 0C6.36701 0 0.807007 5.387 0.807007 12C0.807007 18.613 6.36701 24 12.98 24C16.553 24 19.247 22.827 21.353 20.64C23.513 18.48 24.193 15.427 24.193 12.973C24.193 12.213 24.14 11.506 24.02 10.92H12.98Z" fill="white"/>
</svg>
