<svg width="21" height="20" viewBox="0 0 21 20" fill="none" xmlns="http://www.w3.org/2000/svg">
<path fill-rule="evenodd" clip-rule="evenodd" d="M17.185 17.097C18.154 16.1865 18.926 15.0869 19.4532 13.8662C19.9803 12.6455 20.2515 11.3297 20.25 10C20.25 4.615 15.885 0.25 10.5 0.25C5.11501 0.25 0.750007 4.615 0.750007 10C0.748468 11.3297 1.01967 12.6455 1.54686 13.8662C2.07404 15.0869 2.846 16.1865 3.81501 17.097C5.62194 18.8039 8.01435 19.7533 10.5 19.75C12.9857 19.7533 15.3781 18.8039 17.185 17.097ZM4.64501 15.812C5.34708 14.9336 6.23802 14.2247 7.25164 13.7379C8.26527 13.2511 9.37554 12.9989 10.5 13C11.6245 12.9989 12.7347 13.2511 13.7484 13.7379C14.762 14.2247 15.6529 14.9336 16.355 15.812C15.589 16.5857 14.6771 17.1996 13.672 17.6181C12.6669 18.0366 11.5887 18.2514 10.5 18.25C9.41128 18.2514 8.33311 18.0366 7.32803 17.6181C6.32296 17.1996 5.41098 16.5857 4.64501 15.812ZM14.25 7C14.25 7.99456 13.8549 8.94839 13.1517 9.65165C12.4484 10.3549 11.4946 10.75 10.5 10.75C9.50544 10.75 8.55162 10.3549 7.84836 9.65165C7.14509 8.94839 6.75001 7.99456 6.75001 7C6.75001 6.00544 7.14509 5.05161 7.84836 4.34835C8.55162 3.64509 9.50544 3.25 10.5 3.25C11.4946 3.25 12.4484 3.64509 13.1517 4.34835C13.8549 5.05161 14.25 6.00544 14.25 7Z" fill="white"/>
</svg>
