<svg width="20" height="21" viewBox="0 0 20 21" fill="none" xmlns="http://www.w3.org/2000/svg">
<path fill-rule="evenodd" clip-rule="evenodd" d="M1.25 8.69333V10.1875C1.25 11.0508 1.95 11.75 2.8125 11.75H17.1875C18.05 11.75 18.75 11.05 18.75 10.1875V8.69333C18.75 8.09669 18.5366 7.51972 18.1483 7.06667L15.4108 3.87333C15.1761 3.59944 14.885 3.37957 14.5573 3.22882C14.2296 3.07807 13.8732 3.00001 13.5125 3H6.4875C6.12681 3.00001 5.77039 3.07807 5.44271 3.22882C5.11503 3.37957 4.82386 3.59944 4.58917 3.87333L1.85167 7.06667C1.46343 7.51972 1.25002 8.09669 1.25 8.69333ZM6.4875 4.25C6.30715 4.25001 6.12895 4.28903 5.96511 4.36441C5.80127 4.43978 5.65568 4.54972 5.53833 4.68667L3.23417 7.375H5.87167C6.28322 7.37503 6.68841 7.47666 7.05125 7.67088C7.4141 7.8651 7.72339 8.14589 7.95167 8.48833L8.08833 8.69333C8.20247 8.86456 8.35712 9.00495 8.53854 9.10206C8.71996 9.19917 8.92256 9.24998 9.12833 9.25H10.8717C11.0774 9.24998 11.28 9.19917 11.4615 9.10206C11.6429 9.00495 11.7975 8.86456 11.9117 8.69333L12.0483 8.48833C12.2766 8.14589 12.5859 7.8651 12.9487 7.67088C13.3116 7.47666 13.7168 7.37503 14.1283 7.375H16.7658L14.4617 4.68667C14.3443 4.54972 14.1987 4.43978 14.0349 4.36441C13.8711 4.28903 13.6928 4.25001 13.5125 4.25H6.4875Z" fill="#191919"/>
<path d="M2.34417 13C1.74 13 1.25 13.49 1.25 14.0942V15.5C1.25 16.163 1.51339 16.7989 1.98223 17.2678C2.45107 17.7366 3.08696 18 3.75 18H16.25C16.913 18 17.5489 17.7366 18.0178 17.2678C18.4866 16.7989 18.75 16.163 18.75 15.5V14.0933C18.75 13.49 18.26 13 17.6558 13H14.1283C13.7168 13 13.3116 13.1017 12.9487 13.2959C12.5859 13.4901 12.2766 13.7709 12.0483 14.1133L11.9117 14.3183C11.7975 14.4896 11.6429 14.63 11.4615 14.7271C11.28 14.8242 11.0774 14.875 10.8717 14.875H9.12833C8.92256 14.875 8.71996 14.8242 8.53854 14.7271C8.35712 14.63 8.20247 14.4896 8.08833 14.3183L7.95167 14.1133C7.72339 13.7709 7.4141 13.4901 7.05125 13.2959C6.68841 13.1017 6.28322 13 5.87167 13H2.34417Z" fill="#191919"/>
</svg>
