<svg width="26" height="26" viewBox="0 0 26 26" fill="none" xmlns="http://www.w3.org/2000/svg">
<path fill-rule="evenodd" clip-rule="evenodd" d="M22.2189 3.78112C21.8126 3.37474 21.3303 3.05237 20.7994 2.83244C20.2685 2.6125 19.6995 2.4993 19.1249 2.4993C18.5502 2.4993 17.9812 2.6125 17.4504 2.83244C16.9195 3.05237 16.4371 3.37474 16.0309 3.78112L10.7809 9.03112C10.2856 9.52598 9.91628 10.1325 9.70401 10.7997C9.49175 11.4669 9.44271 12.1753 9.56102 12.8653C9.67933 13.5554 9.96153 14.207 10.3839 14.7654C10.8063 15.3238 11.3565 15.7727 11.9884 16.0743C12.1906 16.1785 12.3442 16.3573 12.4168 16.5729C12.4894 16.7885 12.4752 17.0238 12.3772 17.2291C12.2792 17.4344 12.1051 17.5934 11.8918 17.6725C11.6785 17.7516 11.4429 17.7445 11.2347 17.6528C10.3505 17.2304 9.58054 16.6021 8.98947 15.8205C8.3984 15.0389 8.00348 14.127 7.83787 13.1612C7.67225 12.1954 7.74078 11.2039 8.03769 10.2701C8.3346 9.33624 8.85123 8.48727 9.5442 7.79445L14.7942 2.54445C15.3602 1.96361 16.0359 1.50095 16.7822 1.18334C17.5284 0.86572 18.3303 0.699465 19.1413 0.69422C19.9523 0.688974 20.7562 0.844842 21.5065 1.15278C22.2568 1.46072 22.9385 1.91459 23.5119 2.48806C24.0854 3.06154 24.5393 3.74319 24.8472 4.49347C25.1551 5.24375 25.311 6.04771 25.3058 6.85871C25.3005 7.6697 25.1343 8.47158 24.8167 9.21782C24.499 9.96405 24.0364 10.6398 23.4555 11.2058L21.4057 13.2556C21.3256 13.3416 21.229 13.4105 21.1217 13.4584C21.0143 13.5062 20.8985 13.5319 20.781 13.534C20.6635 13.536 20.5468 13.5144 20.4378 13.4704C20.3289 13.4264 20.2299 13.3609 20.1468 13.2778C20.0637 13.1947 19.9982 13.0958 19.9542 12.9868C19.9102 12.8779 19.8886 12.7612 19.8907 12.6437C19.8928 12.5262 19.9185 12.4103 19.9663 12.303C20.0141 12.1957 20.0831 12.0991 20.169 12.019L22.2189 9.96912C22.6252 9.56285 22.9476 9.0805 23.1675 8.54962C23.3875 8.01875 23.5007 7.44975 23.5007 6.87512C23.5007 6.30049 23.3875 5.73148 23.1675 5.20061C22.9476 4.66973 22.6252 4.18739 22.2189 3.78112ZM13.5984 8.75928C13.6985 8.54999 13.8777 8.38903 14.0964 8.3118C14.3152 8.23457 14.5557 8.24739 14.765 8.34745C15.6492 8.76981 16.4192 9.39816 17.0103 10.1797C17.6013 10.9613 17.9963 11.8733 18.1619 12.8391C18.3275 13.8049 18.259 14.7963 17.9621 15.7302C17.6651 16.664 17.1485 17.513 16.4555 18.2058L11.2055 23.4558C10.6395 24.0366 9.96381 24.4993 9.21757 24.8169C8.47134 25.1345 7.66946 25.3008 6.85846 25.306C6.04747 25.3113 5.2435 25.1554 4.49322 24.8475C3.74295 24.5395 3.06129 24.0856 2.48782 23.5122C1.91435 22.9387 1.46047 22.257 1.15253 21.5068C0.844598 20.7565 0.68873 19.9525 0.693976 19.1415C0.699221 18.3305 0.865476 17.5286 1.18309 16.7824C1.50071 16.0362 1.96336 15.3605 2.54421 14.7944L4.59404 12.7446C4.67414 12.6586 4.77074 12.5897 4.87808 12.5419C4.98541 12.494 5.10128 12.4683 5.21876 12.4663C5.33625 12.4642 5.45295 12.4858 5.5619 12.5298C5.67086 12.5738 5.76983 12.6393 5.85292 12.7224C5.93601 12.8055 6.00151 12.9045 6.04551 13.0134C6.08952 13.1224 6.11114 13.2391 6.10906 13.3566C6.10699 13.474 6.08127 13.5899 6.03345 13.6972C5.98563 13.8046 5.91667 13.9012 5.83071 13.9813L3.78087 16.0311C3.37456 16.4374 3.05226 16.9198 2.83237 17.4507C2.61247 17.9815 2.49929 18.5505 2.49929 19.1251C2.49929 19.6997 2.61247 20.2687 2.83237 20.7996C3.05226 21.3304 3.37456 21.8128 3.78087 22.2191C4.18718 22.6254 4.66954 22.9477 5.20041 23.1676C5.73128 23.3875 6.30026 23.5007 6.87487 23.5007C7.44948 23.5007 8.01846 23.3875 8.54933 23.1676C9.0802 22.9477 9.56256 22.6254 9.96887 22.2191L15.2189 16.9691C15.7142 16.4743 16.0835 15.8678 16.2957 15.2006C16.508 14.5334 16.557 13.825 16.4387 13.1349C16.3204 12.4448 16.0382 11.7932 15.6158 11.2348C15.1934 10.6764 14.6432 10.2276 14.0114 9.92595C13.9076 9.87648 13.8147 9.80705 13.7378 9.72164C13.6609 9.63623 13.6016 9.53651 13.5632 9.42817C13.5248 9.31983 13.5082 9.205 13.5142 9.09023C13.5203 8.97546 13.5489 8.863 13.5984 8.75928Z" fill="white"/>
</svg>
