<svg width="19" height="21" viewBox="0 0 19 21" fill="none" xmlns="http://www.w3.org/2000/svg">
<path d="M10.4347 6.93462L10.4346 6.93467C10.2848 7.08467 10.2007 7.288 10.2007 7.5C10.2007 7.712 10.2848 7.91533 10.4346 8.06533L10.4346 8.06536L12.0693 9.7H1.25C1.03783 9.7 0.834344 9.78429 0.684315 9.93431C0.534286 10.0843 0.45 10.2878 0.45 10.5C0.45 10.7122 0.534286 10.9157 0.684315 11.0657C0.834344 11.2157 1.03783 11.3 1.25 11.3H12.0693L10.4353 12.934C10.357 13.0071 10.2942 13.0953 10.2505 13.1931C10.2068 13.2912 10.1833 13.3972 10.1814 13.5046C10.1795 13.612 10.1993 13.7187 10.2395 13.8183C10.2798 13.9179 10.3396 14.0084 10.4156 14.0844C10.4916 14.1604 10.5821 14.2202 10.6817 14.2605C10.7813 14.3007 10.888 14.3205 10.9954 14.3186C11.1028 14.3167 11.2088 14.2932 11.3069 14.2495C11.4047 14.2058 11.4929 14.143 11.566 14.0647L14.5654 11.0654L14.5654 11.0653C14.7152 10.9153 14.7993 10.712 14.7993 10.5C14.7993 10.288 14.7152 10.0847 14.5654 9.93467L14.5654 9.93464L11.5654 6.93464L11.5653 6.93462C11.4153 6.78481 11.212 6.70066 11 6.70066C10.788 6.70066 10.5847 6.78481 10.4347 6.93462ZM15.5 2.3C15.8846 2.3 16.2534 2.45277 16.5253 2.72469C16.7972 2.99662 16.95 3.36544 16.95 3.75V17.25C16.95 17.6346 16.7972 18.0034 16.5253 18.2753C16.2534 18.5472 15.8846 18.7 15.5 18.7H9.5C9.11544 18.7 8.74662 18.5472 8.4747 18.2753C8.20277 18.0034 8.05 17.6346 8.05 17.25V13.5C8.05 13.2878 7.96571 13.0843 7.81569 12.9343C7.66566 12.7843 7.46217 12.7 7.25 12.7C7.03783 12.7 6.83434 12.7843 6.68431 12.9343C6.53429 13.0843 6.45 13.2878 6.45 13.5V17.25C6.45 18.0589 6.77134 18.8347 7.34332 19.4067C7.91531 19.9787 8.69109 20.3 9.5 20.3H15.5C16.3089 20.3 17.0847 19.9787 17.6567 19.4067C18.2287 18.8347 18.55 18.0589 18.55 17.25V3.75C18.55 2.94109 18.2287 2.16531 17.6567 1.59332C17.0847 1.02134 16.3089 0.7 15.5 0.7H9.5C8.69109 0.7 7.91531 1.02134 7.34332 1.59332C6.77134 2.16531 6.45 2.94109 6.45 3.75V7.5C6.45 7.71217 6.53429 7.91566 6.68431 8.06569C6.83434 8.21571 7.03783 8.3 7.25 8.3C7.46217 8.3 7.66566 8.21571 7.81569 8.06569C7.96571 7.91566 8.05 7.71217 8.05 7.5V3.75C8.05 3.36544 8.20277 2.99662 8.4747 2.72469C8.74662 2.45277 9.11544 2.3 9.5 2.3H15.5Z" fill="#191919" stroke="white" stroke-width="0.1"/>
</svg>
