<svg width="21" height="21" viewBox="0 0 21 21" fill="none" xmlns="http://www.w3.org/2000/svg">
<path fill-rule="evenodd" clip-rule="evenodd" d="M0.75 10.5C0.75 5.115 5.115 0.75 10.5 0.75C15.885 0.75 20.25 5.115 20.25 10.5C20.25 15.885 15.885 20.25 10.5 20.25C5.115 20.25 0.75 15.885 0.75 10.5ZM12.128 6.583C11.238 5.806 9.762 5.806 8.873 6.583C8.72329 6.71402 8.52766 6.78019 8.32915 6.76697C8.13064 6.75375 7.94552 6.66221 7.8145 6.5125C7.68348 6.36279 7.61731 6.16716 7.63053 5.96865C7.64375 5.77014 7.73529 5.58502 7.885 5.454C9.339 4.182 11.661 4.182 13.115 5.454C14.628 6.778 14.628 8.972 13.115 10.296C12.862 10.5166 12.5805 10.7023 12.278 10.848C11.602 11.176 11.25 11.622 11.25 12V12.75C11.25 12.9489 11.171 13.1397 11.0303 13.2803C10.8897 13.421 10.6989 13.5 10.5 13.5C10.3011 13.5 10.1103 13.421 9.96967 13.2803C9.82902 13.1397 9.75 12.9489 9.75 12.75V12C9.75 10.721 10.81 9.893 11.625 9.498C11.807 9.41 11.976 9.299 12.128 9.167C12.958 8.44 12.958 7.31 12.128 6.583ZM10.5 16.5C10.6989 16.5 10.8897 16.421 11.0303 16.2803C11.171 16.1397 11.25 15.9489 11.25 15.75C11.25 15.5511 11.171 15.3603 11.0303 15.2197C10.8897 15.079 10.6989 15 10.5 15C10.3011 15 10.1103 15.079 9.96967 15.2197C9.82902 15.3603 9.75 15.5511 9.75 15.75C9.75 15.9489 9.82902 16.1397 9.96967 16.2803C10.1103 16.421 10.3011 16.5 10.5 16.5Z" fill="white"/>
</svg>
