<svg width="26" height="18" viewBox="0 0 26 18" fill="none" xmlns="http://www.w3.org/2000/svg">
<path fill-rule="evenodd" clip-rule="evenodd" d="M0.750001 2.4375C0.750001 1.22883 1.73 0.25 2.9375 0.25H23.0625C24.27 0.25 25.25 1.23 25.25 2.4375V5.96783C25.2501 6.12152 25.2097 6.27253 25.1329 6.40565C25.0561 6.53877 24.9456 6.64932 24.8125 6.72617C24.4129 6.95625 24.081 7.28757 23.8502 7.68676C23.6194 8.08595 23.4979 8.5389 23.4979 9C23.4979 9.4611 23.6194 9.91405 23.8502 10.3132C24.081 10.7124 24.4129 11.0437 24.8125 11.2738C24.9456 11.3507 25.0561 11.4612 25.1329 11.5943C25.2097 11.7275 25.2501 11.8785 25.25 12.0322V15.5625C25.25 16.77 24.27 17.75 23.0625 17.75H2.9375C2.35734 17.75 1.80094 17.5195 1.3907 17.1093C0.980469 16.6991 0.750001 16.1427 0.750001 15.5625V12.0322C0.749784 11.8786 0.789991 11.7277 0.866583 11.5945C0.943175 11.4614 1.05345 11.3508 1.18633 11.2738C1.58592 11.0437 1.91783 10.7124 2.14861 10.3132C2.37939 9.91405 2.5009 9.4611 2.5009 9C2.5009 8.5389 2.37939 8.08595 2.14861 7.68676C1.91783 7.28757 1.58592 6.95625 1.18633 6.72617C1.05345 6.64917 0.943175 6.53856 0.866583 6.40545C0.789991 6.27234 0.749784 6.12141 0.750001 5.96783V2.4375ZM18.25 1.125C18.4821 1.125 18.7046 1.21719 18.8687 1.38128C19.0328 1.54538 19.125 1.76794 19.125 2V2.875C19.125 3.10706 19.0328 3.32962 18.8687 3.49372C18.7046 3.65781 18.4821 3.75 18.25 3.75C18.0179 3.75 17.7954 3.65781 17.6313 3.49372C17.4672 3.32962 17.375 3.10706 17.375 2.875V2C17.375 1.76794 17.4672 1.54538 17.6313 1.38128C17.7954 1.21719 18.0179 1.125 18.25 1.125ZM19.125 6.375C19.125 6.14294 19.0328 5.92038 18.8687 5.75628C18.7046 5.59219 18.4821 5.5 18.25 5.5C18.0179 5.5 17.7954 5.59219 17.6313 5.75628C17.4672 5.92038 17.375 6.14294 17.375 6.375V7.25C17.375 7.48206 17.4672 7.70462 17.6313 7.86872C17.7954 8.03281 18.0179 8.125 18.25 8.125C18.4821 8.125 18.7046 8.03281 18.8687 7.86872C19.0328 7.70462 19.125 7.48206 19.125 7.25V6.375ZM18.25 9.875C18.4821 9.875 18.7046 9.96719 18.8687 10.1313C19.0328 10.2954 19.125 10.5179 19.125 10.75V11.625C19.125 11.8571 19.0328 12.0796 18.8687 12.2437C18.7046 12.4078 18.4821 12.5 18.25 12.5C18.0179 12.5 17.7954 12.4078 17.6313 12.2437C17.4672 12.0796 17.375 11.8571 17.375 11.625V10.75C17.375 10.5179 17.4672 10.2954 17.6313 10.1313C17.7954 9.96719 18.0179 9.875 18.25 9.875ZM19.125 15.125C19.125 14.8929 19.0328 14.6704 18.8687 14.5063C18.7046 14.3422 18.4821 14.25 18.25 14.25C18.0179 14.25 17.7954 14.3422 17.6313 14.5063C17.4672 14.6704 17.375 14.8929 17.375 15.125V16C17.375 16.2321 17.4672 16.4546 17.6313 16.6187C17.7954 16.7828 18.0179 16.875 18.25 16.875C18.4821 16.875 18.7046 16.7828 18.8687 16.6187C19.0328 16.4546 19.125 16.2321 19.125 16V15.125ZM6 9C6 8.76794 6.09219 8.54538 6.25628 8.38128C6.42038 8.21719 6.64294 8.125 6.875 8.125H13C13.2321 8.125 13.4546 8.21719 13.6187 8.38128C13.7828 8.54538 13.875 8.76794 13.875 9C13.875 9.23206 13.7828 9.45462 13.6187 9.61872C13.4546 9.78281 13.2321 9.875 13 9.875H6.875C6.64294 9.875 6.42038 9.78281 6.25628 9.61872C6.09219 9.45462 6 9.23206 6 9ZM6.875 11.625C6.64294 11.625 6.42038 11.7172 6.25628 11.8813C6.09219 12.0454 6 12.2679 6 12.5C6 12.7321 6.09219 12.9546 6.25628 13.1187C6.42038 13.2828 6.64294 13.375 6.875 13.375H10.375C10.6071 13.375 10.8296 13.2828 10.9937 13.1187C11.1578 12.9546 11.25 12.7321 11.25 12.5C11.25 12.2679 11.1578 12.0454 10.9937 11.8813C10.8296 11.7172 10.6071 11.625 10.375 11.625H6.875Z" fill="white"/>
</svg>
